<mxfile host="app.diagrams.net" modified="2023-08-05T13:12:19.311Z" agent="Mozilla/5.0 (Windows NT 10.0; Win64; x64) AppleWebKit/537.36 (KHTML, like Gecko) Chrome/115.0.0.0 Safari/537.36 Edg/115.0.1901.188" etag="G3Kh31O_Ws9aN02RIkpX" version="21.6.6" type="github">
  <diagram name="Page-1" id="74e2e168-ea6b-b213-b513-2b3c1d86103e">
    <mxGraphModel dx="1923" dy="1501" grid="1" gridSize="20" guides="1" tooltips="1" connect="1" arrows="1" fold="1" page="0" pageScale="1" pageWidth="1100" pageHeight="850" background="none" math="0" shadow="0">
      <root>
        <mxCell id="0" />
        <mxCell id="1" parent="0" />
        <mxCell id="77e6c97f196da883-1" value="game" style="swimlane;html=1;childLayout=stackLayout;startSize=20;rounded=0;shadow=0;labelBackgroundColor=none;strokeWidth=1;fontFamily=Verdana;fontSize=8;align=center;" parent="1" vertex="1">
          <mxGeometry x="70" y="-340" width="1880" height="1110" as="geometry" />
        </mxCell>
        <mxCell id="77e6c97f196da883-2" value="발단(기초)" style="swimlane;html=1;startSize=20;" parent="77e6c97f196da883-1" vertex="1">
          <mxGeometry y="20" width="240" height="1090" as="geometry" />
        </mxCell>
        <mxCell id="-Ns__JTZO5JxM-CEWDEw-22" style="edgeStyle=orthogonalEdgeStyle;rounded=0;orthogonalLoop=1;jettySize=auto;html=1;entryX=0.5;entryY=0;entryDx=0;entryDy=0;" edge="1" parent="77e6c97f196da883-2" source="77e6c97f196da883-9" target="-Ns__JTZO5JxM-CEWDEw-8">
          <mxGeometry relative="1" as="geometry" />
        </mxCell>
        <mxCell id="77e6c97f196da883-9" value="&lt;font style=&quot;font-size: 10px;&quot;&gt;&lt;b&gt;select&lt;br&gt;agricultural products&lt;/b&gt;&lt;/font&gt;&lt;b&gt;&lt;br&gt;&lt;/b&gt;" style="rounded=1;whiteSpace=wrap;html=1;shadow=0;labelBackgroundColor=none;strokeWidth=1;fontFamily=Verdana;fontSize=8;align=center;" parent="77e6c97f196da883-2" vertex="1">
          <mxGeometry x="30" y="240" width="100" height="60" as="geometry" />
        </mxCell>
        <mxCell id="-Ns__JTZO5JxM-CEWDEw-12" style="edgeStyle=orthogonalEdgeStyle;rounded=0;orthogonalLoop=1;jettySize=auto;html=1;entryX=0.5;entryY=0;entryDx=0;entryDy=0;" edge="1" parent="77e6c97f196da883-2" source="77e6c97f196da883-10" target="-Ns__JTZO5JxM-CEWDEw-11">
          <mxGeometry relative="1" as="geometry" />
        </mxCell>
        <mxCell id="77e6c97f196da883-10" value="make money&lt;br&gt;by farming&lt;br&gt;and level up" style="rounded=1;whiteSpace=wrap;html=1;shadow=0;labelBackgroundColor=none;strokeWidth=1;fontFamily=Verdana;fontSize=8;align=center;" parent="77e6c97f196da883-2" vertex="1">
          <mxGeometry x="30" y="560" width="100" height="60" as="geometry" />
        </mxCell>
        <mxCell id="-Ns__JTZO5JxM-CEWDEw-20" style="edgeStyle=orthogonalEdgeStyle;rounded=0;orthogonalLoop=1;jettySize=auto;html=1;entryX=0.5;entryY=0;entryDx=0;entryDy=0;" edge="1" parent="77e6c97f196da883-2" source="-Ns__JTZO5JxM-CEWDEw-1" target="-Ns__JTZO5JxM-CEWDEw-4">
          <mxGeometry relative="1" as="geometry" />
        </mxCell>
        <mxCell id="-Ns__JTZO5JxM-CEWDEw-1" value="&lt;span style=&quot;font-size: 14px;&quot;&gt;&lt;b&gt;game start&lt;/b&gt;&lt;/span&gt;" style="ellipse;whiteSpace=wrap;html=1;" vertex="1" parent="77e6c97f196da883-2">
          <mxGeometry x="20" y="30" width="120" height="80" as="geometry" />
        </mxCell>
        <mxCell id="-Ns__JTZO5JxM-CEWDEw-21" style="edgeStyle=orthogonalEdgeStyle;rounded=0;orthogonalLoop=1;jettySize=auto;html=1;exitX=0.5;exitY=1;exitDx=0;exitDy=0;entryX=0.5;entryY=0;entryDx=0;entryDy=0;" edge="1" parent="77e6c97f196da883-2" source="-Ns__JTZO5JxM-CEWDEw-4" target="77e6c97f196da883-9">
          <mxGeometry relative="1" as="geometry" />
        </mxCell>
        <mxCell id="-Ns__JTZO5JxM-CEWDEw-4" value="setting seed money" style="rounded=1;whiteSpace=wrap;html=1;" vertex="1" parent="77e6c97f196da883-2">
          <mxGeometry x="20" y="150" width="120" height="60" as="geometry" />
        </mxCell>
        <mxCell id="-Ns__JTZO5JxM-CEWDEw-10" style="edgeStyle=orthogonalEdgeStyle;rounded=0;orthogonalLoop=1;jettySize=auto;html=1;entryX=0.453;entryY=-0.042;entryDx=0;entryDy=0;entryPerimeter=0;" edge="1" parent="77e6c97f196da883-2" source="-Ns__JTZO5JxM-CEWDEw-8" target="-Ns__JTZO5JxM-CEWDEw-34">
          <mxGeometry relative="1" as="geometry">
            <mxPoint x="90" y="460" as="targetPoint" />
          </mxGeometry>
        </mxCell>
        <mxCell id="-Ns__JTZO5JxM-CEWDEw-8" value="setting comany" style="rounded=1;whiteSpace=wrap;html=1;" vertex="1" parent="77e6c97f196da883-2">
          <mxGeometry x="20" y="360" width="120" height="60" as="geometry" />
        </mxCell>
        <mxCell id="-Ns__JTZO5JxM-CEWDEw-25" style="edgeStyle=orthogonalEdgeStyle;rounded=0;orthogonalLoop=1;jettySize=auto;html=1;entryX=0.513;entryY=-0.058;entryDx=0;entryDy=0;entryPerimeter=0;" edge="1" parent="77e6c97f196da883-2" source="-Ns__JTZO5JxM-CEWDEw-11" target="-Ns__JTZO5JxM-CEWDEw-26">
          <mxGeometry relative="1" as="geometry">
            <mxPoint x="80" y="900" as="targetPoint" />
          </mxGeometry>
        </mxCell>
        <mxCell id="-Ns__JTZO5JxM-CEWDEw-31" value="False" style="edgeLabel;html=1;align=center;verticalAlign=middle;resizable=0;points=[];" vertex="1" connectable="0" parent="-Ns__JTZO5JxM-CEWDEw-25">
          <mxGeometry x="-0.5167" y="-3" relative="1" as="geometry">
            <mxPoint as="offset" />
          </mxGeometry>
        </mxCell>
        <mxCell id="-Ns__JTZO5JxM-CEWDEw-11" value="if level &amp;gt;= 10" style="rhombus;whiteSpace=wrap;html=1;" vertex="1" parent="77e6c97f196da883-2">
          <mxGeometry x="15" y="740" width="130" height="80" as="geometry" />
        </mxCell>
        <mxCell id="-Ns__JTZO5JxM-CEWDEw-13" style="edgeStyle=orthogonalEdgeStyle;rounded=0;orthogonalLoop=1;jettySize=auto;html=1;entryX=0;entryY=0.5;entryDx=0;entryDy=0;" edge="1" parent="77e6c97f196da883-2" target="77e6c97f196da883-11">
          <mxGeometry relative="1" as="geometry">
            <mxPoint x="130" y="790" as="sourcePoint" />
            <mxPoint x="290" y="200" as="targetPoint" />
            <Array as="points">
              <mxPoint x="190" y="790" />
              <mxPoint x="190" y="100" />
            </Array>
          </mxGeometry>
        </mxCell>
        <mxCell id="-Ns__JTZO5JxM-CEWDEw-14" value="&lt;font style=&quot;font-size: 15px;&quot;&gt;True&lt;/font&gt;" style="edgeLabel;html=1;align=center;verticalAlign=middle;resizable=0;points=[];fontSize=15;" vertex="1" connectable="0" parent="-Ns__JTZO5JxM-CEWDEw-13">
          <mxGeometry x="0.0417" y="-1" relative="1" as="geometry">
            <mxPoint x="-1" y="230" as="offset" />
          </mxGeometry>
        </mxCell>
        <mxCell id="-Ns__JTZO5JxM-CEWDEw-27" value="True" style="edgeStyle=orthogonalEdgeStyle;rounded=0;orthogonalLoop=1;jettySize=auto;html=1;" edge="1" parent="77e6c97f196da883-2" source="-Ns__JTZO5JxM-CEWDEw-26">
          <mxGeometry relative="1" as="geometry">
            <mxPoint x="95" y="1020" as="targetPoint" />
          </mxGeometry>
        </mxCell>
        <mxCell id="-Ns__JTZO5JxM-CEWDEw-29" style="edgeStyle=orthogonalEdgeStyle;rounded=0;orthogonalLoop=1;jettySize=auto;html=1;entryX=0;entryY=0.333;entryDx=0;entryDy=0;entryPerimeter=0;" edge="1" parent="77e6c97f196da883-2" source="-Ns__JTZO5JxM-CEWDEw-26" target="77e6c97f196da883-10">
          <mxGeometry relative="1" as="geometry">
            <Array as="points">
              <mxPoint x="-50" y="940" />
              <mxPoint x="-50" y="580" />
            </Array>
          </mxGeometry>
        </mxCell>
        <mxCell id="-Ns__JTZO5JxM-CEWDEw-30" value="False" style="edgeLabel;html=1;align=center;verticalAlign=middle;resizable=0;points=[];" vertex="1" connectable="0" parent="-Ns__JTZO5JxM-CEWDEw-29">
          <mxGeometry x="0.1087" relative="1" as="geometry">
            <mxPoint as="offset" />
          </mxGeometry>
        </mxCell>
        <mxCell id="-Ns__JTZO5JxM-CEWDEw-26" value="if money &amp;lt;= 0" style="rhombus;whiteSpace=wrap;html=1;" vertex="1" parent="77e6c97f196da883-2">
          <mxGeometry x="20" y="900" width="150" height="80" as="geometry" />
        </mxCell>
        <mxCell id="-Ns__JTZO5JxM-CEWDEw-28" value="game over" style="rounded=0;whiteSpace=wrap;html=1;" vertex="1" parent="77e6c97f196da883-2">
          <mxGeometry x="35" y="1020" width="120" height="60" as="geometry" />
        </mxCell>
        <mxCell id="-Ns__JTZO5JxM-CEWDEw-35" style="edgeStyle=orthogonalEdgeStyle;rounded=0;orthogonalLoop=1;jettySize=auto;html=1;" edge="1" parent="77e6c97f196da883-2" source="-Ns__JTZO5JxM-CEWDEw-34" target="77e6c97f196da883-10">
          <mxGeometry relative="1" as="geometry" />
        </mxCell>
        <mxCell id="-Ns__JTZO5JxM-CEWDEw-34" value="start farm system" style="rounded=1;whiteSpace=wrap;html=1;" vertex="1" parent="77e6c97f196da883-2">
          <mxGeometry x="25" y="460" width="120" height="60" as="geometry" />
        </mxCell>
        <mxCell id="77e6c97f196da883-3" value="전개(돈)" style="swimlane;html=1;startSize=20;" parent="77e6c97f196da883-1" vertex="1">
          <mxGeometry x="240" y="20" width="370" height="1090" as="geometry" />
        </mxCell>
        <mxCell id="-Ns__JTZO5JxM-CEWDEw-19" style="edgeStyle=orthogonalEdgeStyle;rounded=0;orthogonalLoop=1;jettySize=auto;html=1;" edge="1" parent="77e6c97f196da883-3" source="77e6c97f196da883-11" target="-Ns__JTZO5JxM-CEWDEw-33">
          <mxGeometry relative="1" as="geometry">
            <mxPoint x="160" y="220" as="targetPoint" />
            <Array as="points">
              <mxPoint x="80" y="180" />
              <mxPoint x="71" y="180" />
            </Array>
          </mxGeometry>
        </mxCell>
        <mxCell id="-Ns__JTZO5JxM-CEWDEw-40" style="edgeStyle=orthogonalEdgeStyle;rounded=0;orthogonalLoop=1;jettySize=auto;html=1;" edge="1" parent="77e6c97f196da883-3" source="77e6c97f196da883-11" target="-Ns__JTZO5JxM-CEWDEw-39">
          <mxGeometry relative="1" as="geometry" />
        </mxCell>
        <mxCell id="-Ns__JTZO5JxM-CEWDEw-41" style="edgeStyle=orthogonalEdgeStyle;rounded=0;orthogonalLoop=1;jettySize=auto;html=1;exitX=0.75;exitY=1;exitDx=0;exitDy=0;" edge="1" parent="77e6c97f196da883-3" source="77e6c97f196da883-11">
          <mxGeometry relative="1" as="geometry">
            <mxPoint x="240" y="200" as="targetPoint" />
            <Array as="points">
              <mxPoint x="207" y="180" />
              <mxPoint x="241" y="180" />
              <mxPoint x="241" y="200" />
            </Array>
          </mxGeometry>
        </mxCell>
        <mxCell id="-Ns__JTZO5JxM-CEWDEw-72" style="edgeStyle=orthogonalEdgeStyle;rounded=0;orthogonalLoop=1;jettySize=auto;html=1;" edge="1" parent="77e6c97f196da883-3" source="77e6c97f196da883-11">
          <mxGeometry relative="1" as="geometry">
            <mxPoint x="275" y="100" as="targetPoint" />
          </mxGeometry>
        </mxCell>
        <mxCell id="77e6c97f196da883-11" value="&lt;font style=&quot;font-size: 5px;&quot;&gt;enable&amp;nbsp;Financial&lt;br&gt;can have various feed&lt;br&gt;can&amp;nbsp;hire an employee&lt;br&gt;can expand Farm&lt;br&gt;can set salary&lt;br&gt;&lt;/font&gt;" style="rounded=1;whiteSpace=wrap;html=1;shadow=0;labelBackgroundColor=none;strokeWidth=1;fontFamily=Verdana;fontSize=8;align=center;" parent="77e6c97f196da883-3" vertex="1">
          <mxGeometry x="65" y="40" width="190" height="120" as="geometry" />
        </mxCell>
        <mxCell id="-Ns__JTZO5JxM-CEWDEw-33" value="start &lt;br&gt;employee system" style="rounded=1;whiteSpace=wrap;html=1;" vertex="1" parent="77e6c97f196da883-3">
          <mxGeometry x="10" y="200" width="100" height="60" as="geometry" />
        </mxCell>
        <mxCell id="-Ns__JTZO5JxM-CEWDEw-44" style="edgeStyle=orthogonalEdgeStyle;rounded=0;orthogonalLoop=1;jettySize=auto;html=1;" edge="1" parent="77e6c97f196da883-3" source="-Ns__JTZO5JxM-CEWDEw-39">
          <mxGeometry relative="1" as="geometry">
            <mxPoint x="160" y="300" as="targetPoint" />
          </mxGeometry>
        </mxCell>
        <mxCell id="-Ns__JTZO5JxM-CEWDEw-39" value="start economy&lt;br&gt;system" style="rounded=1;whiteSpace=wrap;html=1;" vertex="1" parent="77e6c97f196da883-3">
          <mxGeometry x="112.5" y="200" width="95" height="60" as="geometry" />
        </mxCell>
        <mxCell id="-Ns__JTZO5JxM-CEWDEw-42" value="start weather&lt;br&gt;system" style="rounded=1;whiteSpace=wrap;html=1;" vertex="1" parent="77e6c97f196da883-3">
          <mxGeometry x="210" y="200" width="100" height="60" as="geometry" />
        </mxCell>
        <mxCell id="-Ns__JTZO5JxM-CEWDEw-47" style="edgeStyle=orthogonalEdgeStyle;rounded=0;orthogonalLoop=1;jettySize=auto;html=1;" edge="1" parent="77e6c97f196da883-3" source="-Ns__JTZO5JxM-CEWDEw-45">
          <mxGeometry relative="1" as="geometry">
            <mxPoint x="80" y="420" as="targetPoint" />
          </mxGeometry>
        </mxCell>
        <mxCell id="-Ns__JTZO5JxM-CEWDEw-49" value="company" style="edgeLabel;html=1;align=center;verticalAlign=middle;resizable=0;points=[];" vertex="1" connectable="0" parent="-Ns__JTZO5JxM-CEWDEw-47">
          <mxGeometry x="-0.0001" y="-2" relative="1" as="geometry">
            <mxPoint as="offset" />
          </mxGeometry>
        </mxCell>
        <mxCell id="-Ns__JTZO5JxM-CEWDEw-48" style="edgeStyle=orthogonalEdgeStyle;rounded=0;orthogonalLoop=1;jettySize=auto;html=1;" edge="1" parent="77e6c97f196da883-3" source="-Ns__JTZO5JxM-CEWDEw-45">
          <mxGeometry relative="1" as="geometry">
            <mxPoint x="240" y="420" as="targetPoint" />
          </mxGeometry>
        </mxCell>
        <mxCell id="-Ns__JTZO5JxM-CEWDEw-50" value="client" style="edgeLabel;html=1;align=center;verticalAlign=middle;resizable=0;points=[];" vertex="1" connectable="0" parent="-Ns__JTZO5JxM-CEWDEw-48">
          <mxGeometry x="-0.0845" relative="1" as="geometry">
            <mxPoint as="offset" />
          </mxGeometry>
        </mxCell>
        <mxCell id="-Ns__JTZO5JxM-CEWDEw-45" value="selling to &lt;br&gt;comany, client or both?" style="rhombus;whiteSpace=wrap;html=1;" vertex="1" parent="77e6c97f196da883-3">
          <mxGeometry x="77.5" y="300" width="165" height="80" as="geometry" />
        </mxCell>
        <mxCell id="-Ns__JTZO5JxM-CEWDEw-51" value="select partner comany" style="rounded=0;whiteSpace=wrap;html=1;" vertex="1" parent="77e6c97f196da883-3">
          <mxGeometry x="20" y="420" width="120" height="60" as="geometry" />
        </mxCell>
        <mxCell id="-Ns__JTZO5JxM-CEWDEw-55" style="edgeStyle=orthogonalEdgeStyle;rounded=0;orthogonalLoop=1;jettySize=auto;html=1;entryX=0.5;entryY=0;entryDx=0;entryDy=0;" edge="1" parent="77e6c97f196da883-3" source="-Ns__JTZO5JxM-CEWDEw-53" target="-Ns__JTZO5JxM-CEWDEw-54">
          <mxGeometry relative="1" as="geometry" />
        </mxCell>
        <mxCell id="-Ns__JTZO5JxM-CEWDEw-53" value="haggle over the price" style="rounded=1;whiteSpace=wrap;html=1;" vertex="1" parent="77e6c97f196da883-3">
          <mxGeometry x="20" y="515" width="120" height="60" as="geometry" />
        </mxCell>
        <mxCell id="-Ns__JTZO5JxM-CEWDEw-52" style="edgeStyle=orthogonalEdgeStyle;rounded=0;orthogonalLoop=1;jettySize=auto;html=1;" edge="1" parent="77e6c97f196da883-3" source="-Ns__JTZO5JxM-CEWDEw-51" target="-Ns__JTZO5JxM-CEWDEw-53">
          <mxGeometry relative="1" as="geometry">
            <mxPoint x="80" y="520" as="targetPoint" />
          </mxGeometry>
        </mxCell>
        <mxCell id="-Ns__JTZO5JxM-CEWDEw-56" style="edgeStyle=orthogonalEdgeStyle;rounded=0;orthogonalLoop=1;jettySize=auto;html=1;entryX=1;entryY=0.5;entryDx=0;entryDy=0;" edge="1" parent="77e6c97f196da883-3" source="-Ns__JTZO5JxM-CEWDEw-54" target="-Ns__JTZO5JxM-CEWDEw-53">
          <mxGeometry relative="1" as="geometry">
            <mxPoint x="160" y="540" as="targetPoint" />
            <Array as="points">
              <mxPoint x="160" y="640" />
              <mxPoint x="160" y="545" />
            </Array>
          </mxGeometry>
        </mxCell>
        <mxCell id="-Ns__JTZO5JxM-CEWDEw-57" value="True" style="edgeLabel;html=1;align=center;verticalAlign=middle;resizable=0;points=[];" vertex="1" connectable="0" parent="-Ns__JTZO5JxM-CEWDEw-56">
          <mxGeometry x="-0.0188" relative="1" as="geometry">
            <mxPoint as="offset" />
          </mxGeometry>
        </mxCell>
        <mxCell id="-Ns__JTZO5JxM-CEWDEw-58" style="edgeStyle=orthogonalEdgeStyle;rounded=0;orthogonalLoop=1;jettySize=auto;html=1;" edge="1" parent="77e6c97f196da883-3" source="-Ns__JTZO5JxM-CEWDEw-54">
          <mxGeometry relative="1" as="geometry">
            <mxPoint x="80" y="720" as="targetPoint" />
          </mxGeometry>
        </mxCell>
        <mxCell id="-Ns__JTZO5JxM-CEWDEw-59" value="False" style="edgeLabel;html=1;align=center;verticalAlign=middle;resizable=0;points=[];" vertex="1" connectable="0" parent="-Ns__JTZO5JxM-CEWDEw-58">
          <mxGeometry x="-0.2314" relative="1" as="geometry">
            <mxPoint as="offset" />
          </mxGeometry>
        </mxCell>
        <mxCell id="-Ns__JTZO5JxM-CEWDEw-54" value="if company refuse it" style="rhombus;whiteSpace=wrap;html=1;" vertex="1" parent="77e6c97f196da883-3">
          <mxGeometry x="10" y="600" width="140" height="80" as="geometry" />
        </mxCell>
        <mxCell id="-Ns__JTZO5JxM-CEWDEw-62" style="edgeStyle=orthogonalEdgeStyle;rounded=0;orthogonalLoop=1;jettySize=auto;html=1;entryX=0.467;entryY=0;entryDx=0;entryDy=0;entryPerimeter=0;" edge="1" parent="77e6c97f196da883-3" source="-Ns__JTZO5JxM-CEWDEw-60" target="-Ns__JTZO5JxM-CEWDEw-61">
          <mxGeometry relative="1" as="geometry" />
        </mxCell>
        <mxCell id="-Ns__JTZO5JxM-CEWDEw-60" value="buying necessary crops" style="rounded=0;whiteSpace=wrap;html=1;" vertex="1" parent="77e6c97f196da883-3">
          <mxGeometry x="20" y="720" width="120" height="60" as="geometry" />
        </mxCell>
        <mxCell id="-Ns__JTZO5JxM-CEWDEw-63" style="edgeStyle=orthogonalEdgeStyle;rounded=0;orthogonalLoop=1;jettySize=auto;html=1;entryX=1.006;entryY=0.429;entryDx=0;entryDy=0;entryPerimeter=0;" edge="1" parent="77e6c97f196da883-3" source="-Ns__JTZO5JxM-CEWDEw-61" target="-Ns__JTZO5JxM-CEWDEw-51">
          <mxGeometry relative="1" as="geometry">
            <Array as="points">
              <mxPoint x="190" y="860" />
              <mxPoint x="190" y="446" />
            </Array>
          </mxGeometry>
        </mxCell>
        <mxCell id="-Ns__JTZO5JxM-CEWDEw-64" value="True" style="edgeLabel;html=1;align=center;verticalAlign=middle;resizable=0;points=[];" vertex="1" connectable="0" parent="-Ns__JTZO5JxM-CEWDEw-63">
          <mxGeometry x="0.1072" relative="1" as="geometry">
            <mxPoint as="offset" />
          </mxGeometry>
        </mxCell>
        <mxCell id="-Ns__JTZO5JxM-CEWDEw-65" style="edgeStyle=orthogonalEdgeStyle;rounded=0;orthogonalLoop=1;jettySize=auto;html=1;entryX=0.25;entryY=0;entryDx=0;entryDy=0;" edge="1" parent="77e6c97f196da883-3" source="-Ns__JTZO5JxM-CEWDEw-61" target="-Ns__JTZO5JxM-CEWDEw-67">
          <mxGeometry relative="1" as="geometry">
            <mxPoint x="85.00000000000023" y="940.0000000000002" as="targetPoint" />
            <Array as="points">
              <mxPoint x="85" y="920" />
              <mxPoint x="86" y="920" />
              <mxPoint x="86" y="940" />
              <mxPoint x="130" y="940" />
            </Array>
          </mxGeometry>
        </mxCell>
        <mxCell id="-Ns__JTZO5JxM-CEWDEw-66" value="False" style="edgeLabel;html=1;align=center;verticalAlign=middle;resizable=0;points=[];" vertex="1" connectable="0" parent="-Ns__JTZO5JxM-CEWDEw-65">
          <mxGeometry x="-0.4083" y="1" relative="1" as="geometry">
            <mxPoint as="offset" />
          </mxGeometry>
        </mxCell>
        <mxCell id="-Ns__JTZO5JxM-CEWDEw-61" value="&lt;font style=&quot;font-size: 10px;&quot;&gt;If the company cancels &lt;br&gt;the partner&lt;/font&gt;" style="rhombus;whiteSpace=wrap;html=1;" vertex="1" parent="77e6c97f196da883-3">
          <mxGeometry x="10" y="820" width="150" height="80" as="geometry" />
        </mxCell>
        <mxCell id="-Ns__JTZO5JxM-CEWDEw-67" value="make money" style="rounded=0;whiteSpace=wrap;html=1;" vertex="1" parent="77e6c97f196da883-3">
          <mxGeometry x="100" y="960" width="120" height="60" as="geometry" />
        </mxCell>
        <mxCell id="-Ns__JTZO5JxM-CEWDEw-69" style="edgeStyle=orthogonalEdgeStyle;rounded=0;orthogonalLoop=1;jettySize=auto;html=1;" edge="1" parent="77e6c97f196da883-3" source="-Ns__JTZO5JxM-CEWDEw-68">
          <mxGeometry relative="1" as="geometry">
            <mxPoint x="268" y="520" as="targetPoint" />
          </mxGeometry>
        </mxCell>
        <mxCell id="-Ns__JTZO5JxM-CEWDEw-68" value="search for trend" style="rounded=1;whiteSpace=wrap;html=1;" vertex="1" parent="77e6c97f196da883-3">
          <mxGeometry x="208" y="420" width="120" height="60" as="geometry" />
        </mxCell>
        <mxCell id="-Ns__JTZO5JxM-CEWDEw-75" style="edgeStyle=orthogonalEdgeStyle;rounded=0;orthogonalLoop=1;jettySize=auto;html=1;entryX=0.5;entryY=0;entryDx=0;entryDy=0;" edge="1" parent="77e6c97f196da883-3" source="-Ns__JTZO5JxM-CEWDEw-70" target="-Ns__JTZO5JxM-CEWDEw-76">
          <mxGeometry relative="1" as="geometry">
            <mxPoint x="270.0000000000002" y="600" as="targetPoint" />
          </mxGeometry>
        </mxCell>
        <mxCell id="-Ns__JTZO5JxM-CEWDEw-70" value="Buy crops according to the trend" style="rounded=1;whiteSpace=wrap;html=1;" vertex="1" parent="77e6c97f196da883-3">
          <mxGeometry x="210" y="520" width="120" height="60" as="geometry" />
        </mxCell>
        <mxCell id="-Ns__JTZO5JxM-CEWDEw-74" style="edgeStyle=orthogonalEdgeStyle;rounded=0;orthogonalLoop=1;jettySize=auto;html=1;" edge="1" parent="77e6c97f196da883-3" source="-Ns__JTZO5JxM-CEWDEw-73" target="-Ns__JTZO5JxM-CEWDEw-68">
          <mxGeometry relative="1" as="geometry" />
        </mxCell>
        <mxCell id="-Ns__JTZO5JxM-CEWDEw-73" value="start trend&lt;br&gt;system" style="rounded=1;whiteSpace=wrap;html=1;" vertex="1" parent="77e6c97f196da883-3">
          <mxGeometry x="270" y="70" width="100" height="60" as="geometry" />
        </mxCell>
        <mxCell id="-Ns__JTZO5JxM-CEWDEw-85" style="edgeStyle=orthogonalEdgeStyle;rounded=0;orthogonalLoop=1;jettySize=auto;html=1;entryX=0.5;entryY=0;entryDx=0;entryDy=0;" edge="1" parent="77e6c97f196da883-3" source="-Ns__JTZO5JxM-CEWDEw-76" target="-Ns__JTZO5JxM-CEWDEw-82">
          <mxGeometry relative="1" as="geometry" />
        </mxCell>
        <mxCell id="-Ns__JTZO5JxM-CEWDEw-76" value="start to marketing" style="rounded=1;whiteSpace=wrap;html=1;" vertex="1" parent="77e6c97f196da883-3">
          <mxGeometry x="210" y="610" width="120" height="60" as="geometry" />
        </mxCell>
        <mxCell id="-Ns__JTZO5JxM-CEWDEw-86" style="edgeStyle=orthogonalEdgeStyle;rounded=0;orthogonalLoop=1;jettySize=auto;html=1;" edge="1" parent="77e6c97f196da883-3">
          <mxGeometry relative="1" as="geometry">
            <mxPoint x="216" y="840" as="targetPoint" />
            <mxPoint x="271.7500000000002" y="760" as="sourcePoint" />
            <Array as="points">
              <mxPoint x="272" y="800" />
              <mxPoint x="216" y="800" />
            </Array>
          </mxGeometry>
        </mxCell>
        <mxCell id="-Ns__JTZO5JxM-CEWDEw-91" value="True" style="edgeLabel;html=1;align=center;verticalAlign=middle;resizable=0;points=[];" vertex="1" connectable="0" parent="-Ns__JTZO5JxM-CEWDEw-86">
          <mxGeometry x="0.6684" y="-1" relative="1" as="geometry">
            <mxPoint as="offset" />
          </mxGeometry>
        </mxCell>
        <mxCell id="-Ns__JTZO5JxM-CEWDEw-87" style="edgeStyle=orthogonalEdgeStyle;rounded=0;orthogonalLoop=1;jettySize=auto;html=1;exitX=0.5;exitY=1;exitDx=0;exitDy=0;" edge="1" parent="77e6c97f196da883-3" source="-Ns__JTZO5JxM-CEWDEw-82">
          <mxGeometry relative="1" as="geometry">
            <mxPoint x="330" y="840" as="targetPoint" />
            <Array as="points">
              <mxPoint x="270" y="800" />
              <mxPoint x="330" y="800" />
            </Array>
          </mxGeometry>
        </mxCell>
        <mxCell id="-Ns__JTZO5JxM-CEWDEw-92" value="False" style="edgeLabel;html=1;align=center;verticalAlign=middle;resizable=0;points=[];" vertex="1" connectable="0" parent="-Ns__JTZO5JxM-CEWDEw-87">
          <mxGeometry x="0.5902" y="-1" relative="1" as="geometry">
            <mxPoint as="offset" />
          </mxGeometry>
        </mxCell>
        <mxCell id="-Ns__JTZO5JxM-CEWDEw-82" value="If marketing costs&lt;br&gt;are high" style="rhombus;whiteSpace=wrap;html=1;" vertex="1" parent="77e6c97f196da883-3">
          <mxGeometry x="191" y="700" width="158" height="80" as="geometry" />
        </mxCell>
        <mxCell id="-Ns__JTZO5JxM-CEWDEw-93" style="edgeStyle=orthogonalEdgeStyle;rounded=0;orthogonalLoop=1;jettySize=auto;html=1;entryX=1;entryY=0.5;entryDx=0;entryDy=0;" edge="1" parent="77e6c97f196da883-3" source="-Ns__JTZO5JxM-CEWDEw-88" target="-Ns__JTZO5JxM-CEWDEw-67">
          <mxGeometry relative="1" as="geometry">
            <mxPoint x="250" y="1000" as="targetPoint" />
            <Array as="points">
              <mxPoint x="226" y="920" />
              <mxPoint x="270" y="920" />
              <mxPoint x="270" y="990" />
            </Array>
          </mxGeometry>
        </mxCell>
        <mxCell id="-Ns__JTZO5JxM-CEWDEw-88" value="More chance of success" style="rounded=1;whiteSpace=wrap;html=1;" vertex="1" parent="77e6c97f196da883-3">
          <mxGeometry x="191" y="840" width="69" height="40" as="geometry" />
        </mxCell>
        <mxCell id="-Ns__JTZO5JxM-CEWDEw-94" style="edgeStyle=orthogonalEdgeStyle;rounded=0;orthogonalLoop=1;jettySize=auto;html=1;exitX=0.5;exitY=1;exitDx=0;exitDy=0;entryX=1;entryY=0.5;entryDx=0;entryDy=0;" edge="1" parent="77e6c97f196da883-3" source="-Ns__JTZO5JxM-CEWDEw-90" target="-Ns__JTZO5JxM-CEWDEw-67">
          <mxGeometry relative="1" as="geometry">
            <mxPoint x="250" y="940" as="targetPoint" />
            <Array as="points">
              <mxPoint x="320" y="920" />
              <mxPoint x="270" y="920" />
              <mxPoint x="270" y="990" />
            </Array>
          </mxGeometry>
        </mxCell>
        <mxCell id="-Ns__JTZO5JxM-CEWDEw-90" value="less&lt;br&gt;&amp;nbsp;chance of success" style="rounded=1;whiteSpace=wrap;html=1;" vertex="1" parent="77e6c97f196da883-3">
          <mxGeometry x="285.5" y="840" width="69" height="40" as="geometry" />
        </mxCell>
        <mxCell id="77e6c97f196da883-4" value="위기" style="swimlane;html=1;startSize=20;" parent="77e6c97f196da883-1" vertex="1">
          <mxGeometry x="610" y="20" width="280" height="1090" as="geometry" />
        </mxCell>
        <mxCell id="77e6c97f196da883-12" value="increase the size of a company&lt;br&gt;" style="rounded=1;whiteSpace=wrap;html=1;shadow=0;labelBackgroundColor=none;strokeWidth=1;fontFamily=Verdana;fontSize=8;align=center;" parent="77e6c97f196da883-4" vertex="1">
          <mxGeometry x="50" y="40" width="180" height="120" as="geometry" />
        </mxCell>
        <mxCell id="77e6c97f196da883-13" value="" style="rhombus;whiteSpace=wrap;html=1;rounded=0;shadow=0;labelBackgroundColor=none;strokeWidth=1;fontFamily=Verdana;fontSize=8;align=center;" parent="77e6c97f196da883-4" vertex="1">
          <mxGeometry x="50" y="200" width="180" height="60" as="geometry" />
        </mxCell>
        <mxCell id="77e6c97f196da883-14" value="" style="rounded=1;whiteSpace=wrap;html=1;shadow=0;labelBackgroundColor=none;strokeWidth=1;fontFamily=Verdana;fontSize=8;align=center;" parent="77e6c97f196da883-4" vertex="1">
          <mxGeometry x="90" y="380" width="100" height="60" as="geometry" />
        </mxCell>
        <mxCell id="77e6c97f196da883-5" value="절정" style="swimlane;html=1;startSize=20;" parent="77e6c97f196da883-1" vertex="1">
          <mxGeometry x="890" y="20" width="300" height="1090" as="geometry" />
        </mxCell>
        <mxCell id="77e6c97f196da883-15" value="" style="rounded=1;whiteSpace=wrap;html=1;shadow=0;labelBackgroundColor=none;strokeWidth=1;fontFamily=Verdana;fontSize=8;align=center;" parent="77e6c97f196da883-5" vertex="1">
          <mxGeometry x="30" y="240" width="100" height="60" as="geometry" />
        </mxCell>
        <mxCell id="77e6c97f196da883-16" value="" style="rhombus;whiteSpace=wrap;html=1;rounded=0;shadow=0;labelBackgroundColor=none;strokeWidth=1;fontFamily=Verdana;fontSize=8;align=center;" parent="77e6c97f196da883-5" vertex="1">
          <mxGeometry x="40" y="320" width="80" height="60" as="geometry" />
        </mxCell>
        <mxCell id="77e6c97f196da883-17" value="" style="rounded=1;whiteSpace=wrap;html=1;shadow=0;labelBackgroundColor=none;strokeWidth=1;fontFamily=Verdana;fontSize=8;align=center;" parent="77e6c97f196da883-5" vertex="1">
          <mxGeometry x="30" y="400" width="100" height="60" as="geometry" />
        </mxCell>
        <mxCell id="77e6c97f196da883-19" value="" style="rounded=1;whiteSpace=wrap;html=1;shadow=0;labelBackgroundColor=none;strokeWidth=1;fontFamily=Verdana;fontSize=8;align=center;" parent="77e6c97f196da883-5" vertex="1">
          <mxGeometry x="30" y="560" width="100" height="60" as="geometry" />
        </mxCell>
        <mxCell id="77e6c97f196da883-20" value="" style="rhombus;whiteSpace=wrap;html=1;rounded=0;shadow=0;labelBackgroundColor=none;strokeWidth=1;fontFamily=Verdana;fontSize=8;align=center;" parent="77e6c97f196da883-5" vertex="1">
          <mxGeometry x="40" y="640" width="80" height="60" as="geometry" />
        </mxCell>
        <mxCell id="77e6c97f196da883-6" value="결말" style="swimlane;html=1;startSize=20;" parent="77e6c97f196da883-1" vertex="1">
          <mxGeometry x="1190" y="20" width="240" height="1090" as="geometry" />
        </mxCell>
        <mxCell id="77e6c97f196da883-18" value="" style="rounded=1;whiteSpace=wrap;html=1;shadow=0;labelBackgroundColor=none;strokeWidth=1;fontFamily=Verdana;fontSize=8;align=center;" parent="77e6c97f196da883-6" vertex="1">
          <mxGeometry x="30" y="400" width="100" height="60" as="geometry" />
        </mxCell>
        <mxCell id="77e6c97f196da883-21" value="" style="rounded=1;whiteSpace=wrap;html=1;shadow=0;labelBackgroundColor=none;strokeWidth=1;fontFamily=Verdana;fontSize=8;align=center;" parent="77e6c97f196da883-6" vertex="1">
          <mxGeometry x="30" y="480" width="100" height="60" as="geometry" />
        </mxCell>
        <mxCell id="77e6c97f196da883-22" value="" style="rounded=1;whiteSpace=wrap;html=1;shadow=0;labelBackgroundColor=none;strokeWidth=1;fontFamily=Verdana;fontSize=8;align=center;" parent="77e6c97f196da883-6" vertex="1">
          <mxGeometry x="30" y="560" width="100" height="60" as="geometry" />
        </mxCell>
        <mxCell id="77e6c97f196da883-23" value="" style="rounded=1;whiteSpace=wrap;html=1;shadow=0;labelBackgroundColor=none;strokeWidth=1;fontFamily=Verdana;fontSize=8;align=center;" parent="77e6c97f196da883-6" vertex="1">
          <mxGeometry x="30" y="640" width="100" height="60" as="geometry" />
        </mxCell>
        <mxCell id="77e6c97f196da883-7" value="예외" style="swimlane;html=1;startSize=20;" parent="77e6c97f196da883-1" vertex="1">
          <mxGeometry x="1430" y="20" width="240" height="1090" as="geometry" />
        </mxCell>
        <mxCell id="77e6c97f196da883-24" value="" style="rounded=1;whiteSpace=wrap;html=1;shadow=0;labelBackgroundColor=none;strokeWidth=1;fontFamily=Verdana;fontSize=8;align=center;" parent="77e6c97f196da883-7" vertex="1">
          <mxGeometry x="30" y="640" width="100" height="60" as="geometry" />
        </mxCell>
      </root>
    </mxGraphModel>
  </diagram>
</mxfile>
